<svg height="512pt" viewBox="0 0 512.0001 512" width="512pt" xmlns="http://www.w3.org/2000/svg"><path d="m99 163h140v209h-140zm0 0" fill="#5aa096"/><path d="m10 372v-40h90l40 40h292l70-30-46.113281 75.878906c-14.972657 21.382813-39.433594 34.121094-65.539063 34.121094h-300.347656c-44.183594 0-80-35.816406-80-80zm0 0" fill="#96786e"/><path d="m320.246094 466.644531-35.355469 35.355469-45.960937-45.960938c-9.765626-9.765624-9.765626-25.59375 0-35.355468 9.761718-9.761719 25.589843-9.761719 35.355468 0zm0 0" fill="#5aa096"/><path d="m232.734375 132.625c11.335937-21.507812 10.265625-41.625 10.265625-41.625 0-46.945312-28.339844-81-67-81s-70 38.054688-70 85v37.144531c-14.839844 1.582031-41.0625 10.261719-41.0625 51.855469v107s35-49.5 53.5-49.5 30.5 21.5 30.5 21.5-6-50.5 23.5-50.5c42.5625 0 14.5625 103.5 50.5 103.5 31.0625 0 25-73 25-73l23 13v-75s4.351562-42.707031-38.203125-48.375zm0 0" fill="#96786e"/><path d="m201 85c0-19.328125-11.191406-35-25-35s-25 15.671875-25 35 11.191406 35 25 35 25-15.671875 25-35zm0 0" fill="#f0e6d2"/><path d="m509.554688 335.445312c-2.851563-3.285156-7.496094-4.347656-11.492188-2.636718l-68.117188 29.191406h-180.945312v-53.214844c7.375-13.921875 9.21875-33.839844 9.4375-48.363281l7.578125 4.28125c3.097656 1.75 6.890625 1.726563 9.960937-.066406 3.070313-1.792969 4.960938-5.082031 4.960938-8.636719v-74.570312c.21875-2.851563.703125-13.9375-3.773438-25.976563-3.972656-10.691406-12.425781-23.59375-30.378906-29.789063 6.328125-17.105468 6.316406-31.453124 6.222656-34.597656-.003906-.101562-.003906-.191406-.007812-.269531-.042969-24.925781-7.605469-47.75-21.304688-64.28125-14.167968-17.097656-33.949218-26.515625-55.695312-26.515625-44.113281 0-80 42.617188-80 95v28.789062c-7.277344 1.835938-15.53125 5.320313-22.785156 11.847657-12.128906 10.910156-18.277344 27.183593-18.277344 48.363281v15.785156l-37.480469-41.941406c-3.679687-4.117188-10.003906-4.476562-14.117187-.792969-4.121094 3.679688-4.476563 10.003907-.792969 14.121094l52.390625 58.628906v61.199219c0 4.355469 2.820312 8.210938 6.972656 9.53125s8.679688-.203125 11.195313-3.757812c.074219-.105469 6.878906-9.703126 15.894531-20.199219v45.425781h-79c-5.523438 0-10 4.476562-10 10v40c0 49.625 40.375 90 90 90h140.804688c.34375.375 47.015624 47.070312 47.015624 47.070312 1.953126 1.953126 4.511719 2.929688 7.070313 2.929688s5.117187-.976562 7.070313-2.929688l35.355468-35.355468c3.171875-3.167969 3.765625-7.941406 1.789063-11.714844h61.242187c29.339844 0 56.90625-14.351562 73.730469-38.390625.121094-.175781.238281-.355469.351563-.539063l46.117187-75.878906c2.257813-3.714844 1.855469-8.460937-.992187-11.746094zm-365.410157 26.554688-35.144531-35.140625v-36.5625l64.074219 71.703125zm-35.144531-101.71875v-3.59375c6.601562-5.085938 9.394531-5.1875 9.4375-5.1875 10.222656 0 19.191406 11.84375 21.769531 16.375 2.324219 4.164062 7.265625 6.097656 11.804688 4.636719 4.535156-1.464844 7.410156-5.941407 6.859375-10.675781-1.167969-10.050782-.550782-28.765626 6.070312-36.195313 1.933594-2.171875 4.246094-3.140625 7.496094-3.140625 12.25 0 15.25 19.105469 18.148438 46.097656 1.410156 13.171875 2.746093 25.613282 6.238281 35.710938 6.195312 17.929687 17.621093 21.691406 26.113281 21.691406 2.082031 0 4.109375-.226562 6.0625-.660156v36.660156h-29.101562zm-31.703125-.695312c-.800781.894531-1.585937 1.785156-2.359375 2.671874v-78.257812c0-20.65625 7.078125-33.828125 21.0625-39.3125v18.3125c0 5.511719 4.492188 10 10 10 5.511719 0 10-4.488281 10-10v-68c0-41.355469 26.917969-75 60-75 33.027344 0 57 29.859375 57 71 0 .148438.007812.339844.011719.492188.003906.015624.007812.207031.011719.546874 0 .097657.003906.203126 0 .328126v.121093c0 .15625 0 .328125-.003907.523438v.0625c-.121093 6.808593-2.050781 34.238281-24.488281 54.847656-4.066406 3.734375-4.335938 10.0625-.597656 14.128906 1.96875 2.144531 4.664062 3.234375 7.367187 3.234375 2.414063 0 4.839844-.871094 6.761719-2.636718 6.515625-5.988282 11.652344-12.378907 15.722656-18.792969 25.035156 7.121093 23.488282 33.03125 23.203125 36.128906-.03125.335937-.050781 58.875-.050781 58.875l-8.078125-4.566406c-3.226563-1.820313-7.1875-1.710938-10.308594.285156-3.121093 1.996094-4.882812 5.554687-4.578125 9.242187 1.4375 17.550782.191406 49.21875-9.273437 59.492188-1.734375 1.882812-3.457031 2.6875-5.761719 2.6875-1.632812 0-4.367188 0-7.210938-8.226562-2.75-7.953126-3.96875-19.296876-5.257812-31.3125-1.503906-13.996094-3.058594-28.472657-7.386719-40.046876-4.296875-11.488281-10.609375-17.691406-17.082031-20.882812v-45.53125c0-5.523438-4.476562-10-10-10s-10 4.476562-10 10v43.125c-6.253906 1.257812-11.714844 4.390625-16.023438 9.242188-6.230468 7.015624-9.226562 16.765624-10.574218 25.941406-5.785156-3.898438-12.832032-6.808594-20.964844-6.808594-6.882812 0-18.636719 2.910156-41.140625 28.085938zm12.703125 182.414062c-38.597656 0-70-31.402344-70-70v-30h75.855469l20 20h-25.855469c-5.511719 0-10 4.488281-10 10s4.488281 10 10 10h100.949219l17.871093 20h-9.820312c-5.523438 0-10 4.476562-10 10s4.476562 10 10 10h26.664062c-3.273437 6.199219-4.554687 13.183594-3.847656 20zm194.890625 45.859375-38.890625-38.890625c-5.847656-5.851562-5.847656-15.367188-.003906-21.214844 5.558594-5.558594 15.46875-5.75 21.214844 0l38.890624 38.890625zm162.625-75.460937c-13.105469 18.539062-34.453125 29.601562-57.167969 29.601562h-80.605468l-20-20h29.257812c5.523438 0 10-4.476562 10-10s-4.476562-10-10-10h-83.355469l-17.875-20h214.230469c1.355469 0 2.695312-.273438 3.9375-.808594l41.296875-17.699218zm0 0"/><path d="m50 362c-5.511719 0-10 4.488281-10 10s4.488281 10 10 10 10-4.488281 10-10-4.488281-10-10-10zm0 0"/><path d="m387 402h-28c-5.523438 0-10 4.476562-10 10s4.476562 10 10 10h28c5.523438 0 10-4.476562 10-10s-4.476562-10-10-10zm0 0"/><path d="m159 402h-30c-5.523438 0-10 4.476562-10 10s4.476562 10 10 10h30c5.523438 0 10-4.476562 10-10s-4.476562-10-10-10zm0 0"/><path d="m176 130c19.625 0 35-19.765625 35-45s-15.375-45-35-45-35 19.765625-35 45 15.375 45 35 45zm0-70c7.09375 0 15 10.265625 15 25s-7.90625 25-15 25-15-10.265625-15-25 7.90625-25 15-25zm0 0"/><path d="m106 193c-5.511719 0-10 4.488281-10 10s4.488281 10 10 10 10-4.488281 10-10-4.488281-10-10-10zm0 0"/></svg>